#!OML:ASF H:\Punching\Project 1\Capture day 1\Session 1\female.ASF
:FULLY-SPECIFIED
:DEGREES
2908
root -1.96162 15.7225 7.1634 9.01977 -2.89106 1.54523
lowerback -5.23492 -1.23034 -0.293676
upperback -8.3545 -1.66362 -0.183682
thorax -5.74184 -0.827196 -0.0283922
lowerneck -11.4972 2.75522 8.02068
upperneck 34.269 3.84729 -5.53321
head 13.8073 1.98275 -3.06315
rclavicle 3.67752e-015 8.34896e-015
rhumerus -46.9057 -17.7431 -59.6031
rradius 27.5343
rwrist 9.86009
rhand -12.8906 -14.0321
rfingers 7.12502
rthumb 13.1986 -43.5943
lclavicle 3.67752e-015 8.34896e-015
lhumerus -54.6438 11.3533 67.5682
lradius 34.3574
lwrist -10.0716
lhand -3.39969 17.5261
lfingers 7.12502
lthumb 22.3303 46.2556
rfemur -15.7897 9.78769 13.9319
rtibia 28.9971
rfoot -18.3411 -22.7437
rtoes -1.24392
lfemur -3.92898 -14.8751 -19.3747
ltibia 14.1779
lfoot -17.4233 27.8169
ltoes 2.47437
2909
root -1.96002 15.7226 7.15751 8.974 -2.96383 1.53642
lowerback -5.24084 -1.24844 -0.333311
upperback -8.37518 -1.68766 -0.182205
thorax -5.75954 -0.836912 -0.00460833
lowerneck -11.5241 2.73446 8.01077
upperneck 34.3252 3.79961 -5.48428
head 13.8329 1.96656 -3.0504
rclavicle 6.43565e-015 -1.59028e-015
rhumerus -46.3796 -17.3086 -60.0143
rradius 27.9176
rwrist 9.0515
rhand -13.0685 -13.7499
rfingers 7.12502
rthumb 13.0271 -43.3232
lclavicle 6.43565e-015 -1.59028e-015
lhumerus -54.2031 10.8531 67.7032
lradius 34.8717
lwrist -9.64658
lhand -3.40484 17.5353
lfingers 7.12502
lthumb 22.3254 46.2655
rfemur -15.7846 9.78442 13.9296
rtibia 28.9895
rfoot -18.2962 -22.6649
rtoes -1.28008
lfemur -3.89889 -14.8296 -19.3903
ltibia 14.1962
lfoot -17.4343 27.8421
ltoes 2.50191
2910
root -1.95885 15.7229 7.15139 8.93372 -3.02912 1.51521
lowerback -5.24471 -1.26663 -0.363716
upperback -8.39999 -1.71176 -0.17562
thorax -5.78291 -0.846991 0.0194476
lowerneck -11.5537 2.70689 7.99076
upperneck 34.3867 3.74318 -5.43226
head 13.8604 1.94565 -3.03609
rclavicle 2.10215e-014 -1.2921e-015
rhumerus -45.8766 -16.936 -60.381
rradius 28.2796
rwrist 8.32098
rhand -13.1667 -13.6155
rfingers 7.12502
rthumb 12.9325 -43.1947
lclavicle 2.10215e-014 -1.2921e-015
lhumerus -53.7707 10.408 67.8003
lradius 35.3222
lwrist -9.32545
lhand -3.44409 17.5083
lfingers 7.12502
lthumb 22.2877 46.243
rfemur -15.778 9.79428 13.9431
rtibia 28.9697
rfoot -18.2404 -22.6036
rtoes -1.32992
lfemur -3.89256 -14.7657 -19.3854
ltibia 14.2417
lfoot -17.445 27.8448
ltoes 2.50945
2911
root -1.9579 15.7233 7.14513 8.89782 -3.08416 1.48886
lowerback -5.24521 -1.28653 -0.389976
upperback -8.42905 -1.73809 -0.165479
thorax -5.81274 -0.858263 0.0450385
lowerneck -11.584 2.67412 7.96433
upperneck 34.4513 3.68213 -5.38453
head 13.889 1.92139 -3.02319
rclavicle -2.35808e-014 -1.0635e-014
rhumerus -45.3936 -16.6271 -60.7045
rradius 28.6192
rwrist 7.69651
rhand -13.1771 -13.6729
rfingers 7.12502
rthumb 12.9225 -43.2528
lclavicle -2.35808e-014 -1.0635e-014
lhumerus -53.3511 10.0206 67.8616
lradius 35.7135
lwrist -9.12134
lhand -3.51207 17.4458
lfingers 7.12502
lthumb 22.2224 46.1883
rfemur -15.7678 9.8058 13.9638
rtibia 28.9395
rfoot -18.1815 -22.5509
rtoes -1.37821
lfemur -3.90423 -14.7161 -19.3712
ltibia 14.31
lfoot -17.4659 27.8511
ltoes 2.51494
2912
root -1.95727 15.7237 7.13875 8.8666 -3.13547 1.44899
lowerback -5.24366 -1.30598 -0.405457
upperback -8.45888 -1.76371 -0.148775
thorax -5.84466 -0.869563 0.0715165
lowerneck -11.6217 2.63832 7.93147
upperneck 34.5175 3.62019 -5.34396
head 13.9198 1.8949 -3.01224
rclavicle 2.50966e-015 6.16232e-015
rhumerus -44.9249 -16.3794 -60.9928
rradius 28.9258
rwrist 7.16792
rhand -13.1485 -13.8284
rfingers 7.12502
rthumb 12.95 -43.4065
lclavicle 2.50966e-015 6.16232e-015
lhumerus -52.9373 9.69476 67.8904
lradius 36.041
lwrist -9.03888
lhand -3.60897 17.3406
lfingers 7.12502
lthumb 22.1294 46.0941
rfemur -15.7564 9.8355 14.0003
rtibia 28.9
rfoot -18.1158 -22.5157
rtoes -1.4313
lfemur -3.9297 -14.673 -19.3391
ltibia 14.3951
lfoot -17.495 27.8613
ltoes 2.52512
2913
root -1.95684 15.7242 7.13223 8.83948 -3.18566 1.40241
lowerback -5.24146 -1.32481 -0.414397
upperback -8.48851 -1.78842 -0.128118
thorax -5.87676 -0.88064 0.0984877
lowerneck -11.664 2.60125 7.89205
upperneck 34.5817 3.56026 -5.31075
head 13.9511 1.8674 -3.00279
rclavicle 1.86112e-014 9.64106e-015
rhumerus -44.4701 -16.1862 -61.2533
rradius 29.198
rwrist 6.74298
rhand -13.0973 -14.042
rfingers 7.12502
rthumb 12.9994 -43.617
lclavicle 1.86112e-014 9.64106e-015
lhumerus -52.5283 9.43045 67.89
lradius 36.3101
lwrist -9.06852
lhand -3.72955 17.205
lfingers 7.12502
lthumb 22.0136 45.9723
rfemur -15.7462 9.87225 14.0437
rtibia 28.8556
rfoot -18.0543 -22.4831
rtoes -1.46534
lfemur -3.96326 -14.6415 -19.2981
ltibia 14.4874
lfoot -17.533 27.8822
ltoes 2.54808
2914
root -1.95652 15.7248 7.12571 8.81575 -3.23685 1.35221
lowerback -5.24185 -1.34155 -0.417823
upperback -8.51683 -1.81025 -0.105492
thorax -5.90609 -0.890547 0.124361
lowerneck -11.7088 2.56237 7.84756
upperneck 34.6424 3.50224 -5.2875
head 13.9815 1.83872 -2.99613
rclavicle 4.96962e-015 1.47101e-014
rhumerus -44.0312 -16.0497 -61.4861
rradius 29.4079
rwrist 6.39086
rhand -13.1088 -14.1309
rfingers 7.12502
rthumb 12.9883 -43.7066
lclavicle 4.96962e-015 1.47101e-014
lhumerus -52.1201 9.2214 67.8658
lradius 36.5214
lwrist -9.18963
lhand -3.86788 17.0373
lfingers 7.12502
lthumb 21.8808 45.8201
rfemur -15.7386 9.91507 14.09
rtibia 28.8099
rfoot -17.9998 -22.4508
rtoes -1.48573
lfemur -3.99947 -14.613 -19.2524
ltibia 14.5789
lfoot -17.5766 27.9076
ltoes 2.58621
2915
root -1.95616 15.7253 7.11919 8.7943 -3.28914 1.30719
lowerback -5.24348 -1.35631 -0.420441
upperback -8.54458 -1.82954 -0.0852417
thorax -5.93422 -0.89931 0.14729
lowerneck -11.7542 2.522 7.80038
upperneck 34.6994 3.44614 -5.27421
head 14.0108 1.80918 -2.99272
rclavicle 1.36913e-014 -8.54774e-015
rhumerus -43.6141 -15.9574 -61.7006
rradius 29.573
rwrist 6.12285
rhand -13.1463 -14.1505
rfingers 7.12502
rthumb 12.9521 -43.7285
lclavicle 1.36913e-014 -8.54774e-015
lhumerus -51.717 9.0656 67.8191
lradius 36.6877
lwrist -9.37788
lhand -4.01408 16.857
lfingers 7.12502
lthumb 21.7404 45.6562
rfemur -15.734 9.95653 14.1284
rtibia 28.7689
rfoot -17.9648 -22.4082
rtoes -1.46123
lfemur -4.033 -14.5828 -19.2124
ltibia 14.66
lfoot -17.6178 27.9331
ltoes 2.62587
2916
root -1.95558 15.7255 7.11289 8.77246 -3.33986 1.27463
lowerback -5.24712 -1.37023 -0.426709
upperback -8.57182 -1.84782 -0.0694454
thorax -5.9607 -0.907507 0.167573
lowerneck -11.796 2.47979 7.75114
upperneck 34.7527 3.39207 -5.27206
head 14.038 1.77881 -2.99313
rclavicle 9.0944e-015 -7.95139e-016
rhumerus -43.2233 -15.9011 -61.8993
rradius 29.7002
rwrist 5.94111
rhand -13.2041 -14.1145
rfingers 7.12502
rthumb 12.8964 -43.696
lclavicle 9.0944e-015 -7.95139e-016
lhumerus -51.3261 8.95908 67.7549
lradius 36.8244
lwrist -9.60477
lhand -4.15904 16.6671
lfingers 7.12502
lthumb 21.6012 45.4823
rfemur -15.7305 9.97954 14.1514
rtibia 28.7369
rfoot -17.9492 -22.3458
rtoes -1.4144
lfemur -4.05624 -14.5563 -19.1879
ltibia 14.7234
lfoot -17.6523 27.9622
ltoes 2.6642
2917
root -1.95471 15.7254 7.1067 8.75002 -3.38987 1.26078
lowerback -5.25036 -1.38379 -0.442467
upperback -8.60107 -1.86584 -0.0604707
thorax -5.98951 -0.915222 0.18611
lowerneck -11.8255 2.4369 7.70209
upperneck 34.8004 3.34073 -5.27811
head 14.0603 1.74866 -2.99642
rclavicle -9.93923e-017 -1.43125e-014
rhumerus -42.863 -15.8726 -62.0866
rradius 29.8034
rwrist 5.84826
rhand -13.2385 -14.1078
rfingers 7.12502
rthumb 12.8632 -43.6914
lclavicle -9.93923e-017 -1.43125e-014
lhumerus -50.9565 8.89288 67.6789
lradius 36.9489
lwrist -9.83532
lhand -4.29154 16.4977
lfingers 7.12502
lthumb 21.474 45.3275
rfemur -15.7296 9.98011 14.1527
rtibia 28.7174
rfoot -17.9475 -22.2649
rtoes -1.36423
lfemur -4.06638 -14.54 -19.1867
ltibia 14.7642
lfoot -17.6793 28.0006
ltoes 2.70196
2918
root -1.9537 15.725 7.10074 8.72591 -3.44357 1.25843
lowerback -5.25388 -1.39562 -0.462603
upperback -8.63033 -1.8817 -0.0563566
thorax -6.01822 -0.921764 0.202034
lowerneck -11.8432 2.394 7.65217
upperneck 34.8419 3.29191 -5.28835
head 14.0774 1.71903 -3.00074
rclavicle 9.19379e-015 -2.98177e-015
rhumerus -42.5327 -15.8634 -62.2688
rradius 29.8875
rwrist 5.81826
rhand -13.2532 -14.1145
rfingers 7.12502
rthumb 12.8491 -43.699
lclavicle 9.19379e-015 -2.98177e-015
lhumerus -50.6119 8.85956 67.5982
lradius 37.0736
lwrist -10.0396
lhand -4.40559 16.3467
lfingers 7.12502
lthumb 21.3644 45.1889
rfemur -15.7331 9.96816 14.1406
rtibia 28.7111
rfoot -17.9552 -22.1705
rtoes -1.3193
lfemur -4.05967 -14.5413 -19.2016
ltibia 14.7806
lfoot -17.7017 28.0595
ltoes 2.74473
2919
root -1.95253 15.7245 7.09501 8.69986 -3.50176 1.26777
lowerback -5.25738 -1.40608 -0.488426
upperback -8.65665 -1.89587 -0.0570205
thorax -6.04377 -0.927286 0.216115
lowerneck -11.8592 2.35384 7.6022
upperneck 34.8785 3.24748 -5.29912
head 14.0923 1.69119 -3.00446
rclavicle -6.21202e-015 -1.27222e-014
rhumerus -42.2257 -15.8729 -62.4517
rradius 29.9544
rwrist 5.83213
rhand -13.2559 -14.1514
rfingers 7.12502
rthumb 12.8465 -43.7361
lclavicle -6.21202e-015 -1.27222e-014
lhumerus -50.2921 8.85635 67.5194
lradius 37.2115
lwrist -10.1961
lhand -4.49071 16.2338
lfingers 7.12502
lthumb 21.2827 45.0853
rfemur -15.7432 9.93669 14.116
rtibia 28.7183
rfoot -17.9561 -22.0644
rtoes -1.32621
lfemur -4.03459 -14.5647 -19.2333
ltibia 14.7712
lfoot -17.7182 28.1432
ltoes 2.79284
2920
root -1.95134 15.7237 7.08969 8.67043 -3.56896 1.28024
lowerback -5.25992 -1.41402 -0.514489
upperback -8.67854 -1.90673 -0.0594514
thorax -6.06515 -0.931217 0.228443
lowerneck -11.8745 2.31831 7.5552
upperneck 34.9089 3.20973 -5.31153
head 14.105 1.66639 -3.00816
rclavicle -1.37161e-014 -5.46658e-015
rhumerus -41.9405 -15.8898 -62.6433
rradius 30.0055
rwrist 5.8534
rhand -13.2726 -14.1726
rfingers 7.12502
rthumb 12.8304 -43.7583
lclavicle -1.37161e-014 -5.46658e-015
lhumerus -49.9993 8.87328 67.4518
lradius 37.3677
lwrist -10.2825
lhand -4.54847 16.1599
lfingers 7.12502
lthumb 21.2272 45.0176
rfemur -15.7565 9.90439 14.0882
rtibia 28.7356
rfoot -17.9533 -21.9544
rtoes -1.36655
lfemur -3.98933 -14.6063 -19.273
ltibia 14.7391
lfoot -17.7359 28.251
ltoes 2.85658
